<?xml version="1.0" standalone="no"?>
<!DOCTYPE svg PUBLIC "-//W3C//DTD SVG 20010904//EN"
 "http://www.w3.org/TR/2001/REC-SVG-20010904/DTD/svg10.dtd">
<svg version="1.0" xmlns="http://www.w3.org/2000/svg"
 width="50.000000pt" height="50.000000pt" viewBox="0 0 50.000000 50.000000"
 preserveAspectRatio="xMidYMid meet">

<g transform="translate(0.000000,50.000000) scale(0.100000,-0.100000)"
fill="#000000" stroke="none">
<path d="M270 284 c-58 -69 -113 -135 -122 -147 l-17 -22 -60 59 c-33 33 -64
57 -68 53 -6 -7 114 -137 127 -137 7 0 254 296 258 310 11 32 -26 -5 -118
-116z"/>
<path d="M380 284 c-58 -69 -112 -135 -122 -147 -14 -18 -18 -19 -32 -8 -24
20 -32 5 -11 -19 10 -11 21 -20 24 -20 8 0 254 296 259 310 11 32 -26 -5 -118
-116z"/>
</g>
</svg>
