<?xml version="1.0" standalone="no"?>
<!DOCTYPE svg PUBLIC "-//W3C//DTD SVG 20010904//EN"
 "http://www.w3.org/TR/2001/REC-SVG-20010904/DTD/svg10.dtd">
<svg version="1.0" xmlns="http://www.w3.org/2000/svg"
 width="100.000000pt" height="100.000000pt" viewBox="0 0 100.000000 100.000000"
 preserveAspectRatio="xMidYMid meet">

<g transform="translate(0.000000,100.000000) scale(0.100000,-0.100000)"
fill="#000000" stroke="none">
<path d="M441 873 c-16 -13 -49 -107 -127 -362 -57 -188 -102 -351 -99 -361 7
-23 58 -44 89 -36 24 6 35 31 61 139 l7 27 123 0 123 0 18 -72 c10 -39 25 -78
33 -86 19 -19 78 -9 105 17 19 20 19 21 -87 368 -115 377 -118 383 -187 383
-21 0 -47 -8 -59 -17z m107 -20 c13 -13 51 -123 121 -353 l102 -335 -22 -17
c-25 -21 -68 -24 -74 -5 -2 6 -13 45 -25 85 l-21 72 -134 0 -134 0 -21 -72
c-12 -40 -23 -79 -25 -85 -6 -17 -46 -16 -70 1 -18 13 -14 28 85 352 70 230
109 345 123 357 10 9 32 17 47 17 15 0 37 -8 48 -17z"/>
<path d="M446 773 c-6 -14 -5 -15 5 -6 7 7 10 15 7 18 -3 3 -9 -2 -12 -12z"/>
<path d="M432 720 c0 -14 2 -19 5 -12 2 6 2 18 0 25 -3 6 -5 1 -5 -13z"/>
<path d="M436 573 c-27 -93 -51 -176 -54 -185 -4 -16 6 -18 112 -18 64 0 116
4 116 8 0 5 -6 28 -14 53 -8 24 -33 104 -56 177 -22 72 -44 132 -48 132 -5 0
-30 -75 -56 -167z m108 -40 l43 -143 -93 0 -92 0 23 78 c13 42 33 111 46 152
12 41 23 71 25 65 2 -5 24 -74 48 -152z"/>
<path d="M345 439 c-85 -291 -79 -268 -67 -249 14 22 143 461 140 472 -2 6
-35 -95 -73 -223z"/>
</g>
</svg>
