<?xml version="1.0" standalone="no"?>
<!DOCTYPE svg PUBLIC "-//W3C//DTD SVG 20010904//EN"
 "http://www.w3.org/TR/2001/REC-SVG-20010904/DTD/svg10.dtd">
<svg version="1.0" xmlns="http://www.w3.org/2000/svg"
 width="50.000000pt" height="50.000000pt" viewBox="0 0 50.000000 50.000000"
 preserveAspectRatio="xMidYMid meet">

<g transform="translate(0.000000,50.000000) scale(0.100000,-0.100000)"
fill="#000000" stroke="none">
<path d="M245 446 c-18 -13 -18 -14 3 -25 28 -15 32 -14 32 8 0 27 -13 33 -35
17z"/>
<path d="M199 405 c-8 -7 -38 -19 -68 -27 -52 -13 -53 -14 -77 -72 -13 -33
-24 -67 -24 -76 0 -21 20 -40 42 -40 10 0 28 -6 39 -12 18 -11 23 -10 36 9
l15 22 61 -31 c50 -25 69 -29 107 -25 25 3 53 9 63 12 12 5 17 2 17 -9 0 -16
44 -23 54 -8 2 4 -1 45 -7 90 l-11 84 -35 -5 c-30 -3 -48 4 -106 43 -38 25
-75 49 -81 53 -6 3 -17 0 -25 -8z m36 -25 c10 -16 -37 -90 -57 -90 -25 0 -23
15 10 61 28 40 37 46 47 29z m-100 -77 c-53 -90 -61 -100 -76 -86 -9 9 -7 25
11 72 23 63 29 69 72 70 l27 1 -34 -57z m190 20 c59 -35 65 -41 71 -80 3 -23
3 -46 0 -52 -4 -5 -30 -13 -60 -16 -47 -6 -60 -3 -117 25 -35 18 -67 38 -71
44 -14 21 11 30 57 19 41 -9 47 -8 60 10 17 24 7 47 -10 24 -11 -16 -35 -24
-35 -12 0 8 34 75 38 75 2 0 32 -17 67 -37z m112 -85 c9 -64 5 -97 -7 -62 -13
36 -21 124 -11 124 5 0 13 -28 18 -62z m-300 -32 c-4 -9 -13 -13 -21 -10 -12
5 -13 10 -5 26 13 24 35 9 26 -16z"/>
<path d="M66 168 c-3 -7 -7 -26 -11 -41 l-6 -29 31 22 c35 25 37 31 10 48 -17
10 -21 10 -24 0z"/>
</g>
</svg>
