<?xml version="1.0" standalone="no"?>
<!DOCTYPE svg PUBLIC "-//W3C//DTD SVG 20010904//EN"
 "http://www.w3.org/TR/2001/REC-SVG-20010904/DTD/svg10.dtd">
<svg version="1.0" xmlns="http://www.w3.org/2000/svg"
 width="100.000000pt" height="100.000000pt" viewBox="0 0 100.000000 100.000000"
 preserveAspectRatio="xMidYMid meet">

<g transform="translate(0.000000,100.000000) scale(0.100000,-0.100000)"
fill="#000000" stroke="none">
<path d="M152 862 c-190 -75 -200 -319 -21 -500 53 -54 250 -205 283 -218 7
-3 24 5 39 16 l27 21 -31 45 c-104 152 -116 302 -30 397 84 93 211 102 300 22
33 -30 41 -33 79 -28 38 5 42 8 42 33 0 49 -30 114 -72 157 -86 88 -212 96
-313 19 l-35 -27 -35 27 c-71 54 -155 67 -233 36z"/>
<path d="M504 641 c-46 -21 -75 -57 -94 -115 -28 -87 8 -192 115 -337 l66 -87
102 32 c132 42 194 75 241 126 67 75 82 140 47 216 -39 85 -143 126 -231 90
-10 -4 -21 3 -33 23 -21 35 -90 71 -138 71 -19 0 -52 -9 -75 -19z"/>
</g>
</svg>
