<?xml version="1.0" standalone="no"?>
<!DOCTYPE svg PUBLIC "-//W3C//DTD SVG 20010904//EN"
 "http://www.w3.org/TR/2001/REC-SVG-20010904/DTD/svg10.dtd">
<svg version="1.0" xmlns="http://www.w3.org/2000/svg"
 width="100.000000pt" height="100.000000pt" viewBox="0 0 100.000000 100.000000"
 preserveAspectRatio="xMidYMid meet">

<g transform="translate(0.000000,100.000000) scale(0.100000,-0.100000)"
fill="#000000" stroke="none">
<path d="M250 807 c-13 -7 -35 -28 -48 -47 -23 -34 -23 -37 -20 -271 l3 -237
25 -28 c46 -49 72 -54 295 -54 223 0 249 5 295 54 l25 28 3 237 c3 234 3 237
-20 271 -13 19 -35 40 -48 47 -35 18 -475 18 -510 0z m522 -36 l33 -29 3 -231
c4 -332 15 -321 -303 -321 -318 0 -307 -11 -303 321 l3 231 33 29 32 29 235 0
235 0 32 -29z"/>
<path d="M264 736 l-34 -34 0 -196 c0 -289 -3 -286 275 -286 262 0 276 11 273
197 l-2 108 -5 -117 c-6 -112 -7 -119 -34 -145 l-27 -28 -206 0 -206 0 -29 33
-30 34 3 204 c4 269 -17 247 246 254 l197 6 -193 2 -194 2 -34 -34z"/>
<path d="M428 714 c-16 -8 -28 -20 -28 -27 0 -7 -3 -23 -7 -36 -5 -20 -3 -22
14 -17 18 6 21 1 26 -46 10 -81 8 -126 -5 -131 -8 -4 -7 -6 3 -6 13 -1 18 -16
24 -67 4 -36 13 -80 21 -97 12 -30 13 -25 14 71 0 96 1 102 20 102 47 0 103
62 129 142 10 29 9 41 -1 58 -30 48 -160 82 -210 54z m138 -15 c17 -5 41 -20
53 -33 21 -23 22 -27 10 -63 -8 -21 -24 -54 -37 -75 -21 -33 -38 -44 -94 -62
-15 -4 -18 -18 -19 -73 -1 -59 -2 -63 -9 -33 -5 19 -14 91 -20 160 -7 69 -14
128 -16 132 -3 4 -12 4 -22 1 -15 -6 -15 -4 2 15 11 12 15 22 10 22 -5 1 2 7
16 15 25 14 65 13 126 -6z"/>
<path d="M487 613 c-11 -114 -10 -133 11 -126 49 17 102 91 102 142 0 35 -22
51 -73 51 l-34 0 -6 -67z m81 51 c31 -9 29 -58 -3 -106 -25 -37 -62 -65 -72
-54 -3 2 -2 41 2 85 8 87 11 91 73 75z"/>
<path d="M771 604 c0 -11 3 -14 6 -6 3 7 2 16 -1 19 -3 4 -6 -2 -5 -13z"/>
<path d="M772 555 c0 -16 2 -22 5 -12 2 9 2 23 0 30 -3 6 -5 -1 -5 -18z"/>
</g>
</svg>
