<svg xmlns="http://www.w3.org/2000/svg"  viewBox="0 0 50 50" width="50px" height="50px"><path d="M 18.982422 2.9902344 C 18.487422 2.9902344 18.065187 3.3517969 17.992188 3.8417969 L 17.396484 7.8222656 L 17.375 7.8320312 C 9.656 10.954031 4.6679687 18.353688 4.6679688 26.679688 C 4.6679688 28.238688 4.8499844 29.804891 5.2089844 31.337891 L 5.2148438 31.357422 L 2.3085938 34.144531 C 1.9515938 34.487531 1.8975938 35.040359 2.1835938 35.443359 L 9.1347656 45.269531 C 9.4207656 45.673531 9.9583438 45.811938 10.402344 45.585938 L 13.998047 43.771484 L 14.017578 43.783203 C 17.297578 45.894203 21.096953 47.011719 25.001953 47.011719 C 28.908953 47.011719 32.706328 45.895203 35.986328 43.783203 L 36.005859 43.773438 L 39.601562 45.585938 C 40.045563 45.809937 40.580187 45.673531 40.867188 45.269531 L 47.818359 35.443359 C 48.103359 35.038359 48.049406 34.486531 47.691406 34.144531 L 44.787109 31.359375 L 44.792969 31.337891 C 45.151969 29.804891 45.332031 28.236688 45.332031 26.679688 C 45.332031 18.353687 40.344047 10.955031 32.623047 7.8320312 L 32.007812 3.8417969 C 31.934812 3.3527969 31.514531 2.9902344 31.019531 2.9902344 L 18.982422 2.9902344 z M 19.84375 4.9902344 L 30.15625 4.9902344 L 30.710938 8.6855469 C 30.763938 9.0355469 30.996219 9.3308906 31.324219 9.4628906 L 31.873047 9.6855469 C 38.834047 12.501547 43.332031 19.172687 43.332031 26.679688 C 43.332031 28.083687 43.169703 29.497813 42.845703 30.882812 L 42.710938 31.457031 C 42.630938 31.801031 42.735234 32.16225 42.990234 32.40625 L 45.685547 34.992188 L 39.730469 43.412109 L 36.392578 41.728516 C 36.074578 41.569516 35.698391 41.589203 35.400391 41.783203 L 34.902344 42.103516 C 31.946344 44.005516 28.522 45.009766 25 45.009766 C 21.479 45.009766 18.054656 44.003563 15.097656 42.101562 L 14.599609 41.78125 C 14.435609 41.67625 14.246594 41.621094 14.058594 41.621094 C 13.904594 41.621094 13.748422 41.656516 13.607422 41.728516 L 10.271484 43.412109 L 4.3144531 34.990234 L 7.0097656 32.404297 C 7.2647656 32.160297 7.3720156 31.800078 7.2910156 31.455078 L 7.15625 30.880859 C 6.83225 29.497859 6.6679688 28.084688 6.6679688 26.679688 C 6.6679688 19.172687 11.166 12.500547 18.125 9.6855469 L 18.675781 9.4648438 C 19.003781 9.3318437 19.237063 9.0355469 19.289062 8.6855469 L 19.84375 4.9902344 z M 24 9 L 24 14.050781 C 17.575 14.563781 12.5 19.945 12.5 26.5 C 12.5 28.777 13.122406 30.907047 14.191406 32.748047 L 10.392578 35.455078 L 11.554688 37.085938 L 15.322266 34.398438 C 17.616266 37.203437 21.101 39 25 39 C 28.899 39 32.383734 37.204438 34.677734 34.398438 L 38.445312 37.083984 L 39.607422 35.455078 L 35.808594 32.748047 C 36.877594 30.908047 37.5 28.777 37.5 26.5 C 37.5 19.945 32.425 14.562781 26 14.050781 L 26 9 L 24 9 z M 24 16.050781 L 24 19.011719 L 21.988281 19.011719 L 24.988281 24.988281 L 27.988281 19.011719 L 26 19.011719 L 26 16.050781 C 31.322 16.555781 35.5 21.048 35.5 26.5 C 35.5 28.345 35.018687 30.078891 34.179688 31.587891 L 31.453125 29.644531 L 32.607422 28.025391 L 26 27 L 29.126953 32.912109 L 30.294922 31.273438 L 33.046875 33.234375 C 31.118875 35.533375 28.228 37 25 37 C 21.772 37 18.882078 35.533375 16.955078 33.234375 L 19.707031 31.273438 L 20.875 32.912109 L 24 27 L 17.392578 28.025391 L 18.546875 29.644531 L 15.820312 31.587891 C 14.981312 30.078891 14.5 28.345 14.5 26.5 C 14.5 21.047 18.678 16.555781 24 16.050781 z"/></svg>