<?xml version="1.0" encoding="UTF-8"?>
<svg version="1.1" xmlns="http://www.w3.org/2000/svg" width="100" height="100">
<path d="M0 0 C1.051875 -0.00773438 2.10375 -0.01546875 3.1875 -0.0234375 C6.47078243 0.44169418 6.99886336 0.8228027 9 3.375 C10.12004089 6.15631104 10.12004089 6.15631104 11.17651367 9.57128906 C11.37202316 10.19446518 11.56753265 10.8176413 11.76896667 11.45970154 C12.41155332 13.51717078 13.04017638 15.57859766 13.66796875 17.640625 C14.11154157 19.07705218 14.55566707 20.5133088 15.00032043 21.94940186 C15.93016871 24.9603317 16.85308954 27.97327624 17.77124023 30.98779297 C18.94503836 34.83960032 20.13605423 38.68582123 21.33240795 42.53067398 C22.25319409 45.49687108 23.16455726 48.46589982 24.07317543 51.43584442 C24.50842278 52.85442257 24.94658508 54.27210991 25.38777733 55.6888504 C26.00533778 57.67682406 26.61003246 59.66829131 27.21166992 61.66113281 C27.55791916 62.79125793 27.9041684 63.92138306 28.26091003 65.08575439 C29.05992728 68.64170035 29.22881074 71.74166618 29 75.375 C27.5625 77.3125 27.5625 77.3125 25 78.375 C21.98178886 78.60357365 19.01987345 78.54922347 16 78.375 C15.34743544 76.66922658 14.70326959 74.96023911 14.0625 73.25 C13.52302734 71.82300781 13.52302734 71.82300781 12.97265625 70.3671875 C12 67.375 12 67.375 11 61.375 C3.41 61.375 -4.18 61.375 -12 61.375 C-13.27523882 66.59463939 -13.27523882 66.59463939 -14.54272461 71.81616211 C-15.88888889 77.26388889 -15.88888889 77.26388889 -17 78.375 C-18.9609375 78.54296875 -18.9609375 78.54296875 -21.375 78.5625 C-22.16648437 78.57667969 -22.95796875 78.59085937 -23.7734375 78.60546875 C-26 78.375 -26 78.375 -29 76.375 C-30.12732305 68.44981597 -27.06852003 60.95961539 -24.73046875 53.48046875 C-24.2885425 52.04199086 -23.84733619 50.60329161 -23.40681458 49.16438293 C-22.48501585 46.16240902 -21.55537273 43.16301487 -20.61987305 40.1652832 C-19.42204286 36.32508147 -18.24292851 32.47943449 -17.06942272 28.63173962 C-16.16277721 25.66560924 -15.24695869 22.70237465 -14.32827187 19.73995399 C-13.88981737 18.32261305 -13.45407279 16.90443081 -13.02110863 15.48540306 C-12.4154471 13.50573946 -11.79768384 11.53026336 -11.17651367 9.55541992 C-10.82787766 8.43149338 -10.47924164 7.30756683 -10.12004089 6.14958191 C-7.91901646 0.69717155 -5.7499445 -0.042279 0 0 Z M-1 22.375 C-2.33787245 26.66526517 -3.66952935 30.95743422 -5 35.25 C-5.57234375 37.08498047 -5.57234375 37.08498047 -6.15625 38.95703125 C-6.5171875 40.12363281 -6.878125 41.29023437 -7.25 42.4921875 C-7.75273438 44.11036377 -7.75273438 44.11036377 -8.265625 45.76123047 C-9.09016345 48.24341146 -9.09016345 48.24341146 -9 50.375 C-3.39 50.375 2.22 50.375 8 50.375 C5.7474152 40.89043241 2.97785646 31.6499047 0 22.375 C-0.33 22.375 -0.66 22.375 -1 22.375 Z " fill="#59ECC8" transform="translate(50,10.625)"/>
<path d="M0 0 C1.051875 -0.00773438 2.10375 -0.01546875 3.1875 -0.0234375 C6.47078243 0.44169418 6.99886336 0.8228027 9 3.375 C10.12004089 6.15631104 10.12004089 6.15631104 11.17651367 9.57128906 C11.37202316 10.19446518 11.56753265 10.8176413 11.76896667 11.45970154 C12.41155332 13.51717078 13.04017638 15.57859766 13.66796875 17.640625 C14.11154157 19.07705218 14.55566707 20.5133088 15.00032043 21.94940186 C15.93016871 24.9603317 16.85308954 27.97327624 17.77124023 30.98779297 C18.94503836 34.83960032 20.13605423 38.68582123 21.33240795 42.53067398 C22.25319409 45.49687108 23.16455726 48.46589982 24.07317543 51.43584442 C24.50842278 52.85442257 24.94658508 54.27210991 25.38777733 55.6888504 C26.00533778 57.67682406 26.61003246 59.66829131 27.21166992 61.66113281 C27.55791916 62.79125793 27.9041684 63.92138306 28.26091003 65.08575439 C29.05992728 68.64170035 29.22881074 71.74166618 29 75.375 C27.5625 77.3125 27.5625 77.3125 25 78.375 C21.98178886 78.60357365 19.01987345 78.54922347 16 78.375 C15.34743544 76.66922658 14.70326959 74.96023911 14.0625 73.25 C13.52302734 71.82300781 13.52302734 71.82300781 12.97265625 70.3671875 C12 67.375 12 67.375 11 61.375 C3.41 61.375 -4.18 61.375 -12 61.375 C-13.27523882 66.59463939 -13.27523882 66.59463939 -14.54272461 71.81616211 C-15.88888889 77.26388889 -15.88888889 77.26388889 -17 78.375 C-18.9609375 78.54296875 -18.9609375 78.54296875 -21.375 78.5625 C-22.16648437 78.57667969 -22.95796875 78.59085937 -23.7734375 78.60546875 C-26 78.375 -26 78.375 -29 76.375 C-30.12732305 68.44981597 -27.06852003 60.95961539 -24.73046875 53.48046875 C-24.2885425 52.04199086 -23.84733619 50.60329161 -23.40681458 49.16438293 C-22.48501585 46.16240902 -21.55537273 43.16301487 -20.61987305 40.1652832 C-19.42204286 36.32508147 -18.24292851 32.47943449 -17.06942272 28.63173962 C-16.16277721 25.66560924 -15.24695869 22.70237465 -14.32827187 19.73995399 C-13.88981737 18.32261305 -13.45407279 16.90443081 -13.02110863 15.48540306 C-12.4154471 13.50573946 -11.79768384 11.53026336 -11.17651367 9.55541992 C-10.82787766 8.43149338 -10.47924164 7.30756683 -10.12004089 6.14958191 C-7.91901646 0.69717155 -5.7499445 -0.042279 0 0 Z M-5.57080078 3.48217773 C-7.58637218 6.15158755 -8.32433948 8.84041258 -9.3046875 12.03515625 C-9.50895859 12.69273926 -9.71322968 13.35032227 -9.9236908 14.02783203 C-10.58356557 16.16161484 -11.22953442 18.29931885 -11.875 20.4375 C-12.32584132 21.90634514 -12.77725889 23.37501352 -13.22924805 24.84350586 C-15.73839766 33.03123027 -18.16289824 41.2383782 -20.36523438 49.51464844 C-21.98289607 55.54117354 -24.02821443 61.38292489 -26.1796875 67.23828125 C-27.02356765 70.4651182 -26.95855207 72.22124537 -26 75.375 C-23.69 75.705 -21.38 76.035 -19 76.375 C-16.43515269 70.89555347 -15.36369909 66.51164591 -14 60.375 C-5.09 60.375 3.82 60.375 13 60.375 C14.9375 67.8125 14.9375 67.8125 15.54272461 70.15795898 C16.22110696 73.54460506 16.22110696 73.54460506 18 76.375 C22.65065613 75.92706891 22.65065613 75.92706891 27 74.375 C26.34733035 68.28341661 24.70874903 62.70862029 22.875 56.875 C22.23941674 54.82166614 21.60400503 52.76827918 20.96875 50.71484375 C20.64261719 49.6666748 20.31648438 48.61850586 19.98046875 47.53857422 C18.72331977 43.48226535 17.49004655 39.41894361 16.25952148 35.35449219 C15.38810758 32.48072645 14.50890978 29.60942649 13.62890625 26.73828125 C12.58571399 23.32702427 11.57232657 19.90967791 10.58984375 16.48046875 C10.37215332 15.73853271 10.15446289 14.99659668 9.93017578 14.23217773 C9.3571198 12.27721878 8.79714284 10.31843891 8.23828125 8.359375 C6.90575601 5.14786307 6.04230137 3.98764847 3 2.375 C-1.52575046 1.78438148 -1.52575046 1.78438148 -5.57080078 3.48217773 Z " fill="#1F262F" transform="translate(50,10.625)"/>
<path d="M0 0 C0.99 0.33 1.98 0.66 3 1 C3.98348112 3.41873397 4.76241994 5.71234467 5.48046875 8.2109375 C5.69818436 8.93487701 5.91589996 9.65881653 6.14021301 10.4046936 C6.59884716 11.93800096 7.05154626 13.47309411 7.4987793 15.00976562 C8.18372913 17.3620499 8.88604068 19.70857163 9.59179688 22.0546875 C10.03488287 23.54396516 10.47697339 25.03353943 10.91796875 26.5234375 C11.12729538 27.22665131 11.33662201 27.92986511 11.55229187 28.65438843 C12.38939383 31.54204395 13 33.97595886 13 37 C5.41 37 -2.18 37 -10 37 C-8.1356872 27.77165162 -5.87717139 18.96261724 -3 10 C-2.41195173 8.06392581 -1.82816884 6.1265474 -1.25 4.1875 C-1.00765625 3.37667969 -0.7653125 2.56585937 -0.515625 1.73046875 C-0.34546875 1.15941406 -0.1753125 0.58835937 0 0 Z M1 7 C-0.33787245 11.29026517 -1.66952935 15.58243422 -3 19.875 C-3.57234375 21.70998047 -3.57234375 21.70998047 -4.15625 23.58203125 C-4.5171875 24.74863281 -4.878125 25.91523437 -5.25 27.1171875 C-5.75273438 28.73536377 -5.75273438 28.73536377 -6.265625 30.38623047 C-7.09016345 32.86841146 -7.09016345 32.86841146 -7 35 C-1.39 35 4.22 35 10 35 C7.7474152 25.51543241 4.97785646 16.2749047 2 7 C1.67 7 1.34 7 1 7 Z " fill="#222F36" transform="translate(48,26)"/>
<path d="M0 0 C-1.28241224 7.11501888 -3.05738231 13.95821147 -5.1875 20.86328125 C-5.49067139 21.85829147 -5.79384277 22.8533017 -6.10620117 23.87846375 C-6.74269032 25.96402037 -7.38147375 28.04887808 -8.02246094 30.13305664 C-9.00215187 33.31949894 -9.97430237 36.50816853 -10.9453125 39.69726562 C-11.56726993 41.7319049 -12.18965093 43.76641475 -12.8125 45.80078125 C-13.10213623 46.74979813 -13.39177246 47.698815 -13.69018555 48.67658997 C-14.97788071 52.85607905 -16.27019512 56.97662151 -18 61 C-19.31104851 57.06685446 -18.13254366 54.54297107 -16.875 50.76953125 C-16.41107425 49.31197115 -15.94754536 47.85428469 -15.484375 46.39648438 C-14.74618943 44.10825597 -14.00307714 41.82185695 -13.25195312 39.5378418 C-12.52889125 37.3276603 -11.82600226 35.11179175 -11.125 32.89453125 C-10.7844458 31.88783134 -10.7844458 31.88783134 -10.43701172 30.86079407 C-8.83049055 25.72653271 -9.20878642 22.19076427 -10 17 C-9.6862793 14.63891602 -9.6862793 14.63891602 -9.07421875 12.75390625 C-8.85443359 12.06232422 -8.63464844 11.37074219 -8.40820312 10.65820312 C-8.17037109 9.96662109 -7.93253906 9.27503906 -7.6875 8.5625 C-7.46126953 7.84384766 -7.23503906 7.12519531 -7.00195312 6.38476562 C-6.4056779 4.56500924 -5.71011329 2.77842531 -5 1 C-3 0 -3 0 0 0 Z " fill="#409786" transform="translate(46,21)"/>
<path d="M0 0 C0.66 0.33 1.32 0.66 2 1 C1.80664062 1.64066406 1.61328125 2.28132813 1.4140625 2.94140625 C-0.0940748 7.95110985 -1.57717786 12.96539857 -3 18 C-3.99 18 -4.98 18 -6 18 C-3.10933941 5.33029613 -3.10933941 5.33029613 0 0 Z " fill="#222D34" transform="translate(31,50)"/>
<path d="M0 0 C-0.66 2.97 -1.32 5.94 -2 9 C-3.32 8.67 -4.64 8.34 -6 8 C-5.74438677 5.6568787 -5.40729228 3.32156597 -5 1 C-3 0 -3 0 0 0 Z " fill="#4BBEA4" transform="translate(46,21)"/>
</svg>
